<?xml version="1.0" encoding="UTF-8"?>
<svg xmlns="http://www.w3.org/2000/svg" xmlns:xlink="http://www.w3.org/1999/xlink" width="24pt" height="24pt" viewBox="0 0 24 24" version="1.1">
<g id="surface2564996">
<path style=" stroke:none;fill-rule:nonzero;fill:rgb(18.039216%,72.156864%,44.705883%);fill-opacity:1;" d="M 12 2 C 6.484375 2 2 6.484375 2 12 C 2 13.636719 2.429688 15.167969 3.128906 16.53125 L 2.046875 20.414062 C 1.792969 21.316406 2.6875 22.207031 3.589844 21.953125 L 7.472656 20.871094 C 8.835938 21.566406 10.363281 22 12 22 C 17.515625 22 22 17.511719 22 12 C 22 6.484375 17.515625 2 12 2 Z M 12 3.5 C 16.703125 3.5 20.5 7.296875 20.5 12 C 20.5 16.703125 16.703125 20.5 12 20.5 C 10.5 20.5 9.09375 20.109375 7.871094 19.425781 C 7.699219 19.332031 7.496094 19.304688 7.304688 19.359375 L 3.609375 20.390625 L 4.640625 16.699219 C 4.695312 16.507812 4.671875 16.304688 4.574219 16.132812 C 3.890625 14.90625 3.5 13.5 3.5 12 C 3.5 7.296875 7.296875 3.5 12 3.5 Z M 8.621094 7.5 C 8.460938 7.5 8.203125 7.558594 7.984375 7.796875 C 7.765625 8.035156 7.148438 8.613281 7.148438 9.789062 C 7.148438 10.964844 8.003906 12.097656 8.121094 12.257812 C 8.242188 12.417969 9.773438 14.90625 12.199219 15.863281 C 14.21875 16.660156 14.628906 16.5 15.066406 16.460938 C 15.503906 16.421875 16.480469 15.882812 16.679688 15.324219 C 16.878906 14.765625 16.878906 14.289062 16.820312 14.191406 C 16.761719 14.09375 16.601562 14.03125 16.359375 13.914062 C 16.121094 13.792969 14.949219 13.214844 14.730469 13.136719 C 14.511719 13.054688 14.351562 13.015625 14.191406 13.253906 C 14.035156 13.492188 13.574219 14.03125 13.4375 14.191406 C 13.296875 14.351562 13.15625 14.371094 12.917969 14.25 C 12.679688 14.128906 11.910156 13.878906 11 13.066406 C 10.289062 12.433594 9.808594 11.652344 9.671875 11.414062 C 9.53125 11.175781 9.65625 11.042969 9.777344 10.925781 C 9.882812 10.816406 10.015625 10.644531 10.132812 10.507812 C 10.253906 10.367188 10.292969 10.269531 10.371094 10.109375 C 10.449219 9.949219 10.410156 9.8125 10.351562 9.691406 C 10.292969 9.570312 9.828125 8.390625 9.617188 7.917969 C 9.4375 7.519531 9.25 7.511719 9.078125 7.507812 C 8.9375 7.5 8.777344 7.5 8.621094 7.5 Z M 8.621094 7.5 "/>
</g>
</svg>
