<svg id="Capa_1" data-name="Capa 1" xmlns="http://www.w3.org/2000/svg" viewBox="0 0 1036.36 1175.07"><defs><style>.cls-1{fill:#2eb872;}.cls-2{fill:#111;}</style></defs><title>Logo</title><g id="SvgjsG4081"><path class="cls-1" d="M728.1,1410.81,280.54,1152.35a70.85,70.85,0,0,1-35.31-61.22V574.41A70.83,70.83,0,0,1,280.54,513L728.1,254.72a70.84,70.84,0,0,1,70.83,0l447.35,258.47a70.82,70.82,0,0,1,35.32,61.43v516.51a70.81,70.81,0,0,1-35.32,61.42L798.93,1410.81A70.84,70.84,0,0,1,728.1,1410.81Z" transform="translate(-245.23 -245.23)"/></g><g id="SvgjsG4082"><path class="cls-2" d="M685.65,1062.92l.08.06c0,14.63-5.59,24.31-18.27,31.52l-96.22,55.68a26.61,26.61,0,0,1-39.9-23.13l.12-578.52c0-14.64,5.58-24.31,18.25-31.64l95.72-55.33a26.55,26.55,0,1,1,26.53,46l-87.41,50.52v523l48-27.75V834.93a26.56,26.56,0,0,1,53.11,0v228Zm285.13-546,.06,0c12.68,7.33,18.26,17,18.26,31.64V770.74c0,14.64-5.58,24.31-18.26,31.64l-184,106.32v212.67c0,14.64-5.58,24.31-18.25,31.64l-95.72,55.33a26.55,26.55,0,1,1-26.54-46l87.42-50.52V899.16c0-14.64,5.58-24.31,18.25-31.64L936,761.2V558.09L861.45,515,685.81,616.52v55.54L848,578.24a26.54,26.54,0,0,1,39.84,23l.11,111.1c0,14.64-5.58,24.31-18.25,31.64L774,799.28a26.55,26.55,0,1,1-26.53-46l87.41-50.52V647.23L672.42,741.11A26.61,26.61,0,0,1,632.5,718l.12-111c0-14.64,5.58-24.32,18.25-31.65L843.1,464.24c6.34-3.67,12.31-5.5,18.28-5.5s11.93,1.83,18.27,5.5Z" transform="translate(-245.23 -245.23)"/></g></svg>